<svg t="1692529536129" class="icon" viewBox="0 0 1024 1024" version="1.1" xmlns="http://www.w3.org/2000/svg" p-id="14756" width="200" height="200"><path d="M1024.512 511.488c0 11.264-4.608 21.504-11.776 29.184-7.68 7.68-17.92 11.776-29.184 11.776H140.288L215.04 627.2c8.192 8.192 11.776 18.432 11.776 29.184 0 10.24-4.096 20.992-11.776 29.184-15.872 15.872-41.984 15.872-57.856 0L12.8 540.672l-1.536-1.536c-1.024-1.024-1.536-2.048-2.56-3.072v-0.512c-0.512-1.024-1.536-2.048-2.048-3.072-0.512-1.024-1.536-2.048-2.048-3.584-0.512-1.024-1.024-2.56-1.536-3.584-0.512-1.024-0.512-2.048-1.024-2.56-0.512-1.024-0.512-2.048-1.024-3.584 0-1.536-0.512-2.56-0.512-4.096v-4.096-4.096c0-2.56 0.512-5.12 1.536-7.68 0.512-1.024 0.512-1.536 1.024-2.56v-0.512c0-0.512 0.512-1.024 0.512-1.536 0.512-1.024 0.512-1.536 1.024-2.56 0-0.512 0.512-0.512 0.512-1.024 0.512-1.024 1.024-1.536 1.536-2.56 0 0 0-0.512 0.512-0.512 0.512-1.024 1.536-2.048 2.048-3.072v-0.512c1.024-1.024 1.536-2.048 2.56-3.072h2.048l143.36-143.36c8.192-8.192 18.432-12.288 29.184-12.288 10.24 0 20.992 4.096 29.184 12.288 15.872 15.872 15.872 41.984 0 57.856L140.288 470.528h843.264c22.528 0 40.96 18.432 40.96 40.96z" p-id="14757" fill="#707070"></path></svg>